<svg xmlns="http://www.w3.org/2000/svg" width="11.47" height="11.422" viewBox="0 0 22.94 22.844">
  <defs>
    <style>
      .cls-1 {
        fill: #fff;
        fill-rule: evenodd;
      }
    </style>
  </defs>
  <path class="cls-1" d="M3423.93,96.332a1.877,1.877,0,0,0-1.69-1.64l-7.83-.005-0.01-7.934a1.87,1.87,0,0,0-3.72.061l0.01,7.869-7.84-.005a1.885,1.885,0,0,0-1.86,1.868v0a1.884,1.884,0,0,0,1.88,1.883l7.83,0.005,0.01,7.947a1.87,1.87,0,0,0,3.71-.084l-0.01-7.871,7.9,0A1.882,1.882,0,0,0,3423.93,96.332Z" transform="translate(-3401 -85.125)"/>
</svg>
