<svg xmlns="http://www.w3.org/2000/svg" width="16" height="16" viewBox="0 0 32 32">
  <defs>
    <style>
      .cls-1 {
        fill: #3c4252;
        fill-rule: evenodd;
      }
    </style>
  </defs>
  <path id="icon" class="cls-1" width="39" height="26" d="M3125.85,269.121c-0.93-.6-1.5-0.792-1.47-1.987,0.02-.874.13-2.327-0.85-2.777a1.645,1.645,0,0,0-1.08,0c-0.06-.518.48-1.032,0.29-1.578a2.442,2.442,0,0,0-1.44-1.335,4.618,4.618,0,0,1-1.4-1.038,5.665,5.665,0,0,0-2.52-1.8,6.792,6.792,0,0,0-6.05,1.193c-1.22,1.071-2.95,3.664-1.58,5.169,0.9,0.989,2.41.967,3.63,1.183,0.84,0.153,1.87.5,1.69,1.557-0.11.691-.77,1.165-0.71,1.895,0.05,0.794.78,1.465,0.57,2.3-0.21.818-1.16,1.178-1.4,2.007-0.33,1.11.09,2.457,0.08,3.6,0,0.865-.27,2,0.88,2.134,1.29,0.151,2.71-.662,3.76-1.3a23.1,23.1,0,0,0,3-1.831c0.95-.79.84-1.7,1.25-2.749C3123.11,272.18,3128.95,271.142,3125.85,269.121Zm-6.18-2c-0.39-.163-0.95.452-1.22,0.65a11.1,11.1,0,0,1-1.46.756,1.907,1.907,0,0,0-.89,1.955c0.66,1.4,1.99-1.012,2.26-1.45C3118.53,268.757,3120.77,267.576,3119.67,267.116ZM3118,253a16,16,0,1,0,16,16A16,16,0,0,0,3118,253Zm9.31,6.578a1.4,1.4,0,0,1,.86.7c-0.36.228-.95-0.161-1.47-0.3C3126.8,259.784,3126.78,259.409,3127.31,259.577Zm-4.6-4.425a1.967,1.967,0,0,1-.73-0.212l-0.06-.031C3122.19,254.983,3122.45,255.064,3122.71,255.152ZM3118,283.626a14.666,14.666,0,0,1-13.58-9.186,10.21,10.21,0,0,0,.14-2.408c-0.02-1.669,1.18-2.558,1.54-4.071,0.42-1.757-1.31-2.73-1.53-4.3a1.655,1.655,0,0,1,.02-0.5,14.652,14.652,0,0,1,13.41-8.792,14.966,14.966,0,0,1,1.77.11,10.643,10.643,0,0,0,.53,1.21c0.11,0.981-1.34.375-1.83,0.73-1.16.86,0.28,2.108,1.27,2,0.87-.09,1.77-1.3,2.64-0.85,0.95,0.489-.03,1.6.58,2.076,0.36,0.278.73-.175,0.81-0.5,0.05-.22-0.58-1.779.3-1.431,0.41,0.162.41,1.394,0.66,1.729,0.3,0.411.56-.041,1.02-0.071,0.6-.038.43,0.339,0.54,0.555h-0.02c-1.2.221,0.05,1.171,0.67,1.242,0.86,0.1,1.18.311,0.56,1.029-0.67.782,0.23,1.049,0.38,1.923,0.09,0.478-.03.976,0.09,1.45a5.848,5.848,0,0,0,.48,1.032c0.23,0.533.08,1.427,0.54,1.773,0.71,0.522,2.15.6,2.35-.379,0.08-.4-0.08-0.566.35-0.605a1.491,1.491,0,0,1,.89.442c0.03,0.382.05,0.767,0.05,1.156A14.644,14.644,0,0,1,3118,283.626Z" transform="translate(-3102 -253)"/>
</svg>
