<svg xmlns="http://www.w3.org/2000/svg" width="16.5" height="21" viewBox="0 0 33 42">
  <defs>
    <style>
      .cls-1 {
        fill: #fff;
        fill-rule: evenodd;
      }
    </style>
  </defs>
  <path class="cls-1" d="M270.5,253A16.378,16.378,0,0,0,254,269.152v11.307a1.543,1.543,0,0,0,1.65,1.616h3.3a1.543,1.543,0,0,0,1.65-1.616v-7.108a1.552,1.552,0,0,0-.99-1.453l-2.31-1.131v-1.615a13.2,13.2,0,0,1,26.4,0v1.615l-2.31,1.131a1.856,1.856,0,0,0-.99,1.453v7.108a1.543,1.543,0,0,0,1.65,1.616h3.3a1.543,1.543,0,0,0,1.65-1.616V269.152A16.378,16.378,0,0,0,270.5,253Zm6.6,37.153h-3.8a3.207,3.207,0,0,0-2.8-1.615,3.232,3.232,0,1,0,0,6.462,3.2,3.2,0,0,0,2.8-1.616h3.8a8.085,8.085,0,0,0,8.25-8.076h-3.3A4.811,4.811,0,0,1,277.1,290.151Z" transform="translate(-254 -253)"/>
</svg>
