<svg xmlns="http://www.w3.org/2000/svg" width="26" height="29" viewBox="0 0 52 58">
  <defs>
    <style>
      .cls-1 {
        fill: #fff;
        fill-rule: evenodd;
      }
    </style>
  </defs>
  <path id="icon" class="cls-1" d="M1512.28,75.75l-18.57-10.783a8.113,8.113,0,0,0-3.81-.97,7.069,7.069,0,0,0-3.61.97L1467.71,75.75a7.735,7.735,0,0,0-3.71,6.466v21.565a7.744,7.744,0,0,0,3.71,6.465l18.58,10.784a8.117,8.117,0,0,0,3.81.97h0a7.091,7.091,0,0,0,3.61-.97l18.57-10.784a7.742,7.742,0,0,0,3.72-6.465V82.216A7.757,7.757,0,0,0,1512.28,75.75Zm-23.94-7.2a3.017,3.017,0,0,1,1.56-.416,4.124,4.124,0,0,1,1.75.416l18.44,10.7-9.93,5.766-1.14-1.151a9.2,9.2,0,0,0-6.13-2.556h-4.7a12.2,12.2,0,0,0-7.98,3.326l-0.38.381-9.92-5.765Zm3.45,32.31h-4.68a5.237,5.237,0,0,1-3.23-1.345l-5.07-5.1a1.612,1.612,0,0,1,0-2.515l4.31-4.333a8.089,8.089,0,0,1,5.07-2.114h4.7a5.2,5.2,0,0,1,3.22,1.343l5.07,5.1a1.612,1.612,0,0,1,0,2.516l-4.3,4.333A8.111,8.111,0,0,1,1491.79,100.86Zm-22.03,5.8a3.659,3.659,0,0,1-1.65-2.881V82.989l8.71,5.059-0.92.923a5.776,5.776,0,0,0,0,8.367l5.07,5.1a9.2,9.2,0,0,0,6.14,2.559h0.83v12.217Zm42.12-2.88a3.636,3.636,0,0,1-1.65,2.881l-18.18,10.552V104.99a12.136,12.136,0,0,0,7.73-3.318l4.31-4.333a5.776,5.776,0,0,0,0-8.367l-0.92-.923,8.71-5.059v20.792h0ZM1490,87.38A5.619,5.619,0,1,0,1495.54,93,5.591,5.591,0,0,0,1490,87.38Z" transform="translate(-1464 -64)"/>
</svg>
