<svg xmlns="http://www.w3.org/2000/svg" width="35" height="35" viewBox="0 0 70 70">
  <defs>
    <style>
      .cls-1 {
        fill: #fff;
        fill-rule: evenodd;
      }
    </style>
  </defs>
  <path class="cls-1" d="M743,70.164V68.748c0.557-.679,1.135-1.342,1.658-2.044a1.836,1.836,0,0,0,.349-0.916c0.158-2.218.269-4.44,0.422-6.657a0.815,0.815,0,0,0-.687-1.027,1.146,1.146,0,0,1-.906-1.683c0.265-.833-0.03-2.014,1.529-2.014,4.622,0,9.242-.1,13.864-0.133a1.81,1.81,0,0,1,1.312.371c0.632,1,1.581.931,2.515,0.949,1.563,0.03,3.128-.028,4.689.032a4.215,4.215,0,0,0,2.491-.672,6.92,6.92,0,0,1,2.592-1.317,28.053,28.053,0,0,1,5.8,0,43.566,43.566,0,0,1,5.577,1.174,2.95,2.95,0,0,1,.686.681,1.829,1.829,0,0,0,.961.567c1.5-.188,3-0.431,3.576-2.165a1.324,1.324,0,0,1,1.7-.863c2.89,0.407,5.787.77,8.679,1.166,1.352,0.186,2.9.072,3.2,2.226a10.457,10.457,0,0,1,.964-1.231,2.094,2.094,0,0,1,1.11-.721,32.235,32.235,0,0,1,5.362.493,3.813,3.813,0,0,1,1.875,1.681c0.135,0.2-.527.939-0.833,1.425-0.089.143-.218,0.261-0.309,0.4a1.646,1.646,0,0,0,.558,2.6,1.609,1.609,0,0,1,.624,1.049c0.132,1.541.157,3.094,0.231,4.641q0.2,4.032.4,8.065v0.406c-0.316.3-.623,0.609-0.948,0.9-1.02.9-1.7,1.916-1.248,3.368a0.948,0.948,0,0,1-.14.794c-1.121,1.167-1.3,1.439-.276,2.539a5.582,5.582,0,0,1,1.328,4.825,13.736,13.736,0,0,0-.058,1.915c0.02,0.829.04,1.554-1.036,1.865-0.263.076-.294,0.94-0.431,1.444a4.512,4.512,0,0,0,1.126.241A13.322,13.322,0,0,0,813,92.845v5.467c-0.063.531-.161,1.064-0.181,1.6-0.153,4.043-.28,8.088-0.439,12.133-0.092,2.358-.24,4.714-0.337,7.072-0.033.814-.409,0.811-1.069,0.631a21.253,21.253,0,0,0-3.252-.677c-1.017-.11-1.955.12-1.919,1.507-2.526-.069-4.987.293-7.308-0.813a2.979,2.979,0,0,0-2.559.108,6.064,6.064,0,0,1-2.14.531q-4.893.137-9.79,0.119a2.445,2.445,0,0,0-2.344,1.255c-1.03,1.678-1.952,1.614-2.9-.124a2.821,2.821,0,0,0-3.681-.706,8.568,8.568,0,0,1-1.971,1.206,0.829,0.829,0,0,1-1.259-.735c0-1.317-.829-1.6-1.857-1.62-4.484-.085-8.97-0.112-13.454-0.21-1.96-.044-3.916-0.231-5.876-0.317a20.956,20.956,0,0,0-2.416.056c-0.47.033-.928,0.209-1.4,0.271a2.754,2.754,0,0,1-3.294-2.863c0.13-3.2.271-6.4,0.447-9.6a2.071,2.071,0,0,1,.44-1.392,2.687,2.687,0,0,0,.934-2.328c0.063-1.719.154-3.436,0.177-5.156a1.119,1.119,0,0,0-.416-0.894,1.737,1.737,0,0,1-1.094-2.1,19.219,19.219,0,0,0,0-2.226,8.041,8.041,0,0,1,1.12-5.135,6,6,0,0,0,.632-1.6c0.383-1.228.31-1.443-.932-1.686A0.939,0.939,0,0,1,744,83.359c0.262-1.936.551-3.872,0.735-5.816a4.435,4.435,0,0,0-.35-1.689c-0.317-.976-0.775-1.912-1.023-2.9A23.165,23.165,0,0,1,743,70.164Zm53.349,39.355c1.086-.059,2.175-0.084,3.257-0.187,1.712-.161,1.855-0.313,2.162-1.96,0.512-2.752.956-5.518,1.552-8.251a3.366,3.366,0,0,0-1.653-3.987c-12.753-8.621-25.447-17.33-38.165-26-1.764-1.2-3.524-2.422-5.37-3.49a4.4,4.4,0,0,0-2.406-.495,14.745,14.745,0,0,0-2.841.774c-0.685.2-.789,0.6-0.344,1.117,0.6,0.691,1.218,1.362,1.845,2.025,11.942,12.657,23.923,25.278,35.793,38C791.952,108.969,793.682,110.19,796.347,109.519Zm-39.2-14.987c-0.306.612-.58,1.073-0.778,1.564q-1.662,4.131-3.292,8.277c-0.628,1.606-.611,1.619.728,2.8,0.636,0.558,1.33,1.058,1.922,1.659a8.605,8.605,0,0,0,6.094,2.4,5.2,5.2,0,0,0,2.434-.495c1.636-.815,3.195-1.788,4.767-2.727,1.456-.871,1.474-0.917.21-2.132q-4.908-4.716-9.863-9.384C758.687,95.845,757.96,95.247,757.146,94.533Zm28.872-26.145c-0.065.139-.131,0.276-0.2,0.416,0.524,0.415,1.053.827,1.572,1.25q4.635,3.788,9.263,7.585c0.653,0.539.938,0.288,1.111-.408,0.7-2.81,1.421-5.613,2.08-8.432a1.212,1.212,0,0,0-.368-1.005,21.572,21.572,0,0,0-2.744-1.911,2.214,2.214,0,0,0-1.5-.231c-2.721.713-5.421,1.5-8.124,2.283A10.265,10.265,0,0,0,786.018,68.388Z" transform="translate(-743 -53)"/>
</svg>
